# xmcd
#
# Track frame offsets:
# 150
# 11879
# 22840
# 32534
# 44714
# 56892
# 68136
# 82468
# 94640
# 106984
# 120353
# 132100
# 143803
# 156117
# 168400
# 179275
# 189916
# 201361
# 212136
# 223924
#
# Disc length: 3134 seconds
#
#
# Revision: 0
# Processed by: cddbd v1.5.1PL0 Copyright (c) Steve Scherf et al.
# Submitted via: FreeRIP 2.51 
#
DISCID=230c3c14
DTITLE=George Jones - George Jones 20 Original Greatest Hits
DYEAR=1900
DGENRE=Country
TTITLE0=She Thinks I Still Care
TTITLE1=Mansion On The Hill
TTITLE2=The Race Is On
TTITLE3=A Girl I Used to Know
TTITLE4=You Comb Her Hair
TTITLE5=Big Fool of the Year
TTITLE6=Open Pit Mine
TTITLE7=We Must of Been Out of Our Minds
TTITLE8=A Rose From a Bride's Bouquet
TTITLE9=Wedding Bells
TTITLE10=Where Does a Little Tear Come From
TTITLE11=Least of All
TTITLE12=Sometimes You Just Can't Win
TTITLE13=Something I Dreamed
TTITLE14=It's Funny What a Fool Will Do
TTITLE15=Once More
TTITLE16=They'll Never Take Her Love From Me
TTITLE17=Take These Chains From My Heart
TTITLE18=Suppose Tonight Would Be Our Last
TTITLE19=You Win Again
EXTD=
EXTT0=
EXTT1=
EXTT2=
EXTT3=& the Jones Boys
EXTT4=
EXTT5=
EXTT6=
EXTT7=with Melba Montgomery
EXTT8=
EXTT9=
EXTT10=
EXTT11=
EXTT12=
EXTT13=
EXTT14=
EXTT15=with Melba Montgomery
EXTT16=
EXTT17=
EXTT18=with Melba Montgomery
EXTT19=
PLAYORDER=
